<svg width="15" height="15" viewBox="0 0 15 15" fill="none" xmlns="http://www.w3.org/2000/svg">
<path d="M5.25 0H1.5C0.675 0 0 0.675 0 1.5V5.25C0 6.075 0.675 6.75 1.5 6.75H5.25C6.075 6.75 6.75 6.075 6.75 5.25V1.5C6.75 0.675 6.075 0 5.25 0ZM5.25 3.75H1.5V3H5.25V3.75ZM13.5 8.25H9.75C8.925 8.25 8.25 8.925 8.25 9.75V13.5C8.25 14.325 8.925 15 9.75 15H13.5C14.325 15 15 14.325 15 13.5V9.75C15 8.925 14.325 8.25 13.5 8.25ZM13.5 12.75H9.75V12H13.5V12.75ZM13.5 11.25H9.75V10.5H13.5V11.25ZM13.5 0H9.75C8.925 0 8.25 0.675 8.25 1.5V5.25C8.25 6.075 8.925 6.75 9.75 6.75H13.5C14.325 6.75 15 6.075 15 5.25V1.5C15 0.675 14.325 0 13.5 0ZM13.5 3.75H12V5.25H11.25V3.75H9.75V3H11.25V1.5H12V3H13.5V3.75ZM5.25 8.25H1.5C0.675 8.25 0 8.925 0 9.75V13.5C0 14.325 0.675 15 1.5 15H5.25C6.075 15 6.75 14.325 6.75 13.5V9.75C6.75 8.925 6.075 8.25 5.25 8.25ZM4.95 12.675L4.425 13.2L3.375 12.15L2.325 13.2L1.8 12.675L2.85 11.625L1.8 10.575L2.325 10.05L3.375 11.1L4.425 10.05L4.95 10.575L3.9 11.625L4.95 12.675Z" fill="#FD2016"/>
</svg>
