<svg width="14" height="10" viewBox="0 0 14 10" fill="none" xmlns="http://www.w3.org/2000/svg">
<path d="M12.9648 1.32713L11.8016 0.223256C11.6448 0.0744186 11.4487 0 11.2265 0C11.0044 0 10.8083 0.0744186 10.6515 0.223256L5.05782 5.53178L2.56158 3.15039C2.40475 3.00155 2.20871 2.92713 1.98653 2.92713C1.76436 2.92713 1.56832 3.00155 1.41149 3.15039L0.248317 4.25426C0.0784158 4.4031 0 4.58915 0 4.8C0 5.01085 0.0784158 5.1969 0.235248 5.34574L3.3196 8.27287L4.48277 9.37674C4.6396 9.52558 4.83564 9.6 5.05782 9.6C5.28 9.6 5.47604 9.52558 5.63287 9.37674L6.79604 8.27287L12.9648 2.4186C13.1216 2.26977 13.2 2.08372 13.2 1.87287C13.2 1.66202 13.1216 1.47597 12.9648 1.32713Z" fill="#FD2016"/>
</svg>
