<svg width="8" height="6" viewBox="0 0 8 6" fill="none" xmlns="http://www.w3.org/2000/svg">
<path d="M7.85743 0.830434L7.15248 0.140511C7.05743 0.0474882 6.93861 0.000976562 6.80396 0.000976562C6.66931 0.000976562 6.5505 0.0474882 6.45545 0.140511L3.06535 3.45834L1.55248 1.96997C1.45743 1.87695 1.33861 1.83043 1.20396 1.83043C1.06931 1.83043 0.950495 1.87695 0.855446 1.96997L0.150495 2.65989C0.0475248 2.75291 0 2.86919 0 3.00098C0 3.13276 0.0475247 3.24904 0.142574 3.34206L2.01188 5.17152L2.71683 5.86144C2.81188 5.95446 2.93069 6.00098 3.06535 6.00098C3.2 6.00098 3.31881 5.95446 3.41386 5.86144L4.11881 5.17152L7.85743 1.5126C7.95248 1.41958 8 1.3033 8 1.17152C8 1.03974 7.95248 0.923457 7.85743 0.830434Z" fill="white"/>
</svg>
