<svg width="12" height="15" viewBox="0 0 12 15" fill="none" xmlns="http://www.w3.org/2000/svg">
<path d="M11.9747 7.02423C11.7727 8.44098 11.1666 9.64784 10.207 10.6448C9.65145 11.1695 9.14638 11.7467 8.59081 12.2714C7.7827 13.1635 6.9746 14.108 6.1665 15C4.44927 13.1635 2.78256 11.5893 1.21686 9.85773C0.307738 8.80828 -0.0458079 7.44401 0.00469863 6.02726C0.0552052 2.98387 2.328 0.360261 5.15637 0.045428C8.33828 -0.321877 11.0656 1.56712 11.8737 4.66298C12.0758 5.29265 11.9747 6.91928 11.9747 7.02423ZM6.01498 8.28356C7.07561 8.28356 7.98473 7.39153 7.98473 6.28962C7.98473 5.1877 7.07561 4.2432 6.06548 4.2432C5.05535 4.2432 4.09573 5.1877 4.09573 6.23714C4.09573 7.33906 4.95434 8.28356 6.01498 8.28356Z" fill="#FD2016"/>
</svg>
