<svg width="6" height="6" viewBox="0 0 6 6" fill="none" xmlns="http://www.w3.org/2000/svg">
<path d="M5.04328 3.74813C4.8333 3.53031 4.56032 3.53031 4.34159 3.74813C4.17711 3.91192 4.01437 4.07398 3.84989 4.23777C3.80439 4.28308 3.76764 4.29179 3.7134 4.26565C3.61366 4.20292 3.49467 4.15762 3.39493 4.09314C2.92072 3.79343 2.52001 3.41182 2.16479 2.97794C1.99156 2.76013 1.83757 2.5336 1.72733 2.27048C1.70984 2.21647 1.70984 2.18859 1.75533 2.14328C1.92857 1.9882 2.08255 1.82614 2.24704 1.66235C2.47451 1.43582 2.47451 1.17271 2.24704 0.94618C2.11055 0.810265 1.98281 0.683062 1.85507 0.555859C1.71858 0.419944 1.59085 0.284028 1.45436 0.156825C1.24438 -0.0522751 0.971404 -0.0522751 0.752674 0.156825C0.58819 0.320621 0.425455 0.482674 0.26097 0.646469C0.105235 0.801552 0.024742 0.982773 0.00549378 1.19013C-0.0225036 1.52643 0.0597387 1.85228 0.178728 2.16942C0.425455 2.83157 0.79817 3.40311 1.24438 3.93806C1.85507 4.66468 2.583 5.23623 3.43168 5.64397C3.81489 5.82519 4.20685 5.96982 4.62506 5.9977C4.92604 6.01513 5.18151 5.93497 5.38974 5.7067C5.52623 5.54291 5.69072 5.40699 5.83595 5.25365C6.05468 5.02713 6.05468 4.7553 5.83595 4.53748C5.57173 4.27436 5.3075 4.01125 5.04328 3.74813Z" fill="#FD2016"/>
</svg>
