<svg width="36" height="35" viewBox="0 0 36 35" fill="none" xmlns="http://www.w3.org/2000/svg">
<rect width="35.0324" height="35" rx="17.5" fill="#776EE9"/>
<path d="M18.9967 10.377H16.1551C13.4044 10.377 11.1857 12.6213 11.1857 15.407V17.5628C11.1857 19.5085 12.2886 21.2771 14.0272 22.104V24.5124C14.0272 24.6338 14.1375 24.7453 14.277 24.7453C14.3321 24.7453 14.397 24.7224 14.4424 24.6797L16.4957 22.5896H18.9967C21.7507 22.5896 23.9694 20.3453 23.9694 17.5595V15.4038C23.9694 12.6213 21.7507 10.377 18.9967 10.377ZM20.8651 19.8039L20.1547 20.5224C19.3892 21.2738 17.4235 20.4109 15.6848 18.6226C13.9461 16.8344 13.1741 14.8099 13.9072 14.0585L14.6176 13.3399C14.903 13.0741 15.3507 13.0872 15.6329 13.3628L16.6612 14.4456C16.9239 14.7344 16.9239 15.1642 16.6385 15.453C16.5606 15.5317 16.473 15.5744 16.3757 15.6203C16.0157 15.7319 15.8308 16.083 15.9183 16.4505C16.0935 17.2478 17.0861 18.242 17.8419 18.4389C18.1922 18.5275 18.5523 18.3273 18.6723 17.9861C18.7923 17.6317 19.1848 17.4348 19.5579 17.5562C19.6682 17.589 19.7557 17.6678 19.8433 17.7334L20.8716 18.8162C21.1279 19.0754 21.1279 19.5184 20.8651 19.8039ZM18.2117 13.7927C18.1338 13.7927 18.069 13.7927 18.0041 13.8157C17.8841 13.8386 17.7543 13.7369 17.7413 13.5958C17.7284 13.4547 17.8192 13.3432 17.9489 13.33C18.0365 13.3071 18.1241 13.3071 18.2117 13.3071C19.5222 13.3071 20.5732 14.3899 20.5926 15.6958C20.5926 15.7844 20.5926 15.873 20.5699 15.9616C20.5472 16.083 20.4499 16.1945 20.3072 16.1716C20.1645 16.1486 20.0769 16.0502 20.0996 15.9058C20.0996 15.827 20.1223 15.7614 20.1223 15.6958C20.1125 14.6556 19.2594 13.7927 18.2117 13.7927ZM19.6325 15.7155C19.6098 15.8369 19.5125 15.9484 19.3697 15.9255C19.2594 15.9025 19.1621 15.8139 19.1621 15.7155C19.1621 15.197 18.7372 14.7639 18.2214 14.7639C18.1014 14.7869 17.9717 14.6753 17.9587 14.5441C17.936 14.4227 18.0463 14.2914 18.1663 14.2783H18.1987C19.0194 14.2783 19.6325 14.9181 19.6325 15.7155ZM21.4457 16.4767C21.423 16.5981 21.303 16.6867 21.183 16.6769C21.063 16.667 20.9754 16.5325 20.9851 16.4111C20.9851 16.3881 20.9851 16.3881 20.9851 16.3783C21.0403 16.1683 21.063 15.9484 21.063 15.7155C21.063 14.1339 19.7849 12.8411 18.2214 12.8411C18.1436 12.8411 18.0787 12.8411 18.0138 12.8411C17.8938 12.8641 17.7641 12.7525 17.7641 12.6213C17.7413 12.4999 17.8516 12.3686 17.9717 12.3686C18.0592 12.3686 18.1468 12.3457 18.2214 12.3457C20.0477 12.3457 21.5431 13.8485 21.5431 15.7056C21.5333 15.9583 21.5009 16.2339 21.4457 16.4767Z" fill="white"/>
</svg>
