<svg width="36" height="35" viewBox="0 0 36 35" fill="none" xmlns="http://www.w3.org/2000/svg">
<rect width="35.0324" height="35" rx="17.5" fill="#20C863"/>
<path d="M17.1784 10.377C13.4292 10.377 10.3871 13.4162 10.3871 17.162C10.3871 18.6619 10.873 20.0434 11.6948 21.1683L10.8296 23.7261L13.5279 22.8853C14.5828 23.5563 15.8352 23.9471 17.1784 23.9471C20.9277 23.9471 23.9698 20.9078 23.9698 17.162C23.9698 13.4162 20.9277 10.377 17.1784 10.377ZM20.2877 20.8013C19.0551 21.2946 17.5854 20.817 15.9774 19.5974C14.3695 18.3777 13.3106 16.6607 13.2395 15.3858C13.1684 14.1109 14.2075 13.4675 14.7724 13.4715C15.3374 13.4754 15.9577 15.2793 15.9656 15.5556C15.9735 15.8358 15.2742 16.3331 15.2465 16.57C15.2189 16.8068 16.1987 17.9751 16.6135 18.2909C17.0244 18.6027 17.8738 19.2027 18.3123 19.1474C18.7469 19.0882 19.0353 18.2159 19.3119 18.1606C19.5884 18.1054 21.0976 18.8553 21.2477 19.0487C21.3979 19.2461 21.3821 20.3671 20.2877 20.8013Z" fill="white"/>
</svg>
