<svg width="30" height="30" viewBox="0 0 30 30" fill="none" xmlns="http://www.w3.org/2000/svg">
<path d="M15 0C6.71902 0 0 6.71902 0 15C0 18.3159 1.0733 21.37 2.88831 23.8569L0.977312 29.5113L6.93717 27.6527C9.26702 29.1361 12.0332 30 15 30C23.281 30 30 23.281 30 15C30 6.71902 23.281 0 15 0ZM21.8674 23.0454C19.1449 24.1361 15.8988 23.0803 12.3473 20.3839C8.79581 17.6876 6.45724 13.8918 6.30017 11.0733C6.14311 8.2548 8.43805 6.83246 9.68586 6.84119C10.9337 6.84991 12.3037 10.8377 12.3211 11.4485C12.3386 12.0681 10.7941 13.1675 10.733 13.6911C10.6719 14.2147 12.836 16.7976 13.7522 17.4956C14.6597 18.185 16.5358 19.5113 17.5044 19.3892C18.4642 19.2583 19.1012 17.3298 19.712 17.2077C20.3229 17.0855 23.6562 18.7435 23.9878 19.171C24.3194 19.6073 24.2845 22.0855 21.8674 23.0454Z" fill="#20C863"/>
</svg>
